<svg xmlns="http://www.w3.org/2000/svg" id="background" width="679.642" height="637.428" viewBox="0 0 679.642 637.428">
    <defs>
        <style>
            .cls-1{fill:#fffeb0}.cls-2{fill:#c8f0fc}.cls-3,.cls-7{fill:none;stroke-linecap:round;stroke-linejoin:round}.cls-3{stroke:#707070;stroke-width:3px}.cls-4{fill:#e6e7ff}.cls-5,.cls-9{opacity:.66}.cls-6,.cls-9{fill:#fff}.cls-7{stroke:#fff;stroke-width:7px;opacity:.932}.cls-8{fill:#b6ffcf}
        </style>
    </defs>
    <g id="Camada_2" data-name="Camada 2">
        <g id="BACKGROUND_2" data-name="BACKGROUND 2">
            <path id="Caminho_1" d="M170.1 450.5a12.134 12.134 0 0 0 17.15 0l9.39-9.375a3.558 3.558 0 0 1 5.031 0 3.544 3.544 0 0 1 0 5.016l-41.587 41.589a21.066 21.066 0 0 0 0 29.8 21.066 21.066 0 0 0 29.784 0l78.976-78.976a6.246 6.246 0 0 1 8.818 0 6.231 6.231 0 0 1 0 8.832l-2.63 2.715a17.15 17.15 0 0 0 0 24.4 16.921 16.921 0 0 0 23.667-.229l31.127-31.2a6.545 6.545 0 0 1 9.275 0 6.545 6.545 0 0 1 0 9.275l-47.019 47.02a12.148 12.148 0 0 0 0 17.15 12.176 12.176 0 0 0 17.15 0L452.076 373.6a12.134 12.134 0 0 0 0-17.15 12.148 12.148 0 0 0-17.15 0l-36.9 36.9a6.56 6.56 0 0 1-9.275 0 6.56 6.56 0 0 1 0-9.275l108.415-108.332a17.15 17.15 0 0 0 0-24.4 16.907 16.907 0 0 0-23.667.229L301.442 423.618a6.245 6.245 0 0 1-8.818 0 6.231 6.231 0 0 1 0-8.832L337.9 369.51a21.052 21.052 0 0 0 0-29.784 21.052 21.052 0 0 0-29.784 0L241.9 405.939a3.559 3.559 0 0 1-5.031 0 3.559 3.559 0 0 1 0-5.031l93.239-93.253a12.134 12.134 0 0 0 0-17.15 12.134 12.134 0 0 0-17.15 0L170.116 433.351a12.134 12.134 0 0 0-.016 17.149z" class="cls-1" data-name="Caminho 1" transform="translate(66.064 105.861)"/>
            <path id="Caminho_2" d="M537.394 214.308a12.177 12.177 0 0 0-17.15 0l-9.375 9.39a3.558 3.558 0 0 1-5.031 0 3.559 3.559 0 0 1 0-5.031l42.975-42.975c8.346-8.346 8.575-22.281.1-30.47a21.066 21.066 0 0 0-29.5.286L458.3 206.619a6.231 6.231 0 0 1-8.832 0 6.245 6.245 0 0 1 0-8.818l2.587-2.587a17.15 17.15 0 0 0 .9-23.638 16.893 16.893 0 0 0-24.453-.586l-31.127 31.127a6.588 6.588 0 0 1-9.29 0 6.589 6.589 0 0 1 0-9.29L502.937 77.966a12.148 12.148 0 0 0 0-17.15 12.134 12.134 0 0 0-17.15 0l-81.119 81.119a5.86 5.86 0 0 1-8.289 0 5.846 5.846 0 0 1 0-8.289l10.09-10.09a10 10 0 0 0 .5-13.763 9.675 9.675 0 0 0-13.906-.214L173.471 329.127a10 10 0 0 0-.5 13.763 9.7 9.7 0 0 0 13.906.214l84.478-84.492a5.86 5.86 0 0 1 8.289 0 5.859 5.859 0 0 1 0 8.3l-4.573 4.573a12.134 12.134 0 0 0 0 17.15 12.134 12.134 0 0 0 17.15 0l36.9-36.9a6.588 6.588 0 0 1 9.29 0 6.588 6.588 0 0 1 0 9.29l-79.8 79.833a17.15 17.15 0 0 0-.9 23.638 16.893 16.893 0 0 0 24.453.586l116.601-116.603a6.26 6.26 0 0 1 8.832 0 6.26 6.26 0 0 1 0 8.832l-18.365 18.35a21.066 21.066 0 0 0 0 29.8 21.066 21.066 0 0 0 29.784 0l24.539-24.539a3.559 3.559 0 0 1 5.031 0 3.558 3.558 0 0 1 0 5.031L344.342 390.195a12.134 12.134 0 0 0 0 17.15 12.133 12.133 0 0 0 17.15 0l175.9-175.858a12.176 12.176 0 0 0 0-17.179z" class="cls-2" data-name="Caminho 2" transform="translate(73.171 24.594)"/>
            <path id="Linha_1" d="M0 52.379L52.379 0" class="cls-3" data-name="Linha 1" transform="translate(625.142 45.908)"/>
            <path id="Caminho_3" d="M291.015 260.26a9.39 9.39 0 1 1-6.631 2.758 9.39 9.39 0 0 1 6.631-2.758z" class="cls-4" data-name="Caminho 3" transform="translate(120.882 111.712)"/>
            <path id="Caminho_4" d="M310.165 250.514a9.39 9.39 0 0 1 0 13.291 9.4 9.4 0 0 1-13.277 0 9.39 9.39 0 0 1 0-13.291 9.3 9.3 0 0 1 6.646-2.744 9.318 9.318 0 0 1 6.631 2.744z" class="cls-4" data-name="Caminho 4" transform="translate(126.242 106.351)"/>
            <path id="Caminho_5" d="M316.024 235.28a9.39 9.39 0 1 1-6.649 2.745 9.39 9.39 0 0 1 6.649-2.745z" class="cls-4" data-name="Caminho 5" transform="translate(131.602 100.991)"/>
            <g id="Grupo_1" class="cls-5" data-name="Grupo 1" transform="translate(556.97 181.807)">
                <path id="Caminho_6" d="M399.1 152.19a9.418 9.418 0 1 1-6.631 2.758 9.418 9.418 0 0 1 6.631-2.758z" class="cls-6" data-name="Caminho 6" transform="translate(-389.71 -116.475)"/>
                <path id="Caminho_7" d="M418.235 142.448a9.39 9.39 0 0 1 0 13.291 9.375 9.375 0 0 1-13.277 0 9.39 9.39 0 0 1 0-13.291 9.39 9.39 0 0 1 6.631-2.758 9.375 9.375 0 0 1 6.646 2.758z" class="cls-6" data-name="Caminho 7" transform="translate(-384.348 -121.84)"/>
                <path id="Caminho_8" d="M424.087 127.2a9.4 9.4 0 1 1-8.665 5.8 9.4 9.4 0 0 1 8.665-5.8z" class="cls-6" data-name="Caminho 8" transform="translate(-378.982 -127.2)"/>
            </g>
            <path id="Caminho_9" d="M195.854 265.2a5.559 5.559 0 0 1 3.873 1.615 5.488 5.488 0 0 1 0 7.746 5.716 5.716 0 0 1-7.746 0 5.488 5.488 0 0 1 3.873-9.361z" class="cls-4" data-name="Caminho 9" transform="translate(81.716 113.832)"/>
            <path id="Caminho_10" d="M233.285 239.2a5.445 5.445 0 0 1 0 7.732 5.488 5.488 0 0 1-7.76 0 5.474 5.474 0 0 1 0-7.732 5.445 5.445 0 0 1 3.887-1.615 5.4 5.4 0 0 1 3.873 1.615zm-19.737 19.722a5.516 5.516 0 0 1 0 7.76 5.474 5.474 0 0 1-7.746 0 5.488 5.488 0 0 1 0-7.76 5.459 5.459 0 0 1 3.859-1.586 5.531 5.531 0 0 1 3.888 1.581z" class="cls-4" data-name="Caminho 10" transform="translate(87.645 101.978)"/>
            <path id="Caminho_11" d="M237.3 223.76a5.5 5.5 0 0 1 3.873 9.375 5.717 5.717 0 0 1-7.746 0 5.588 5.588 0 0 1-1.615-3.887 5.517 5.517 0 0 1 5.488-5.488z" class="cls-4" data-name="Caminho 11" transform="translate(99.496 96.047)"/>
            <path id="Caminho_12" d="M203.428 438.39a5.6 5.6 0 0 1 3.887 1.6 5.545 5.545 0 0 1 0 7.76 5.717 5.717 0 0 1-7.76 0 5.477 5.477 0 0 1 3.873-9.361z" class="cls-4" data-name="Caminho 12" transform="translate(84.96 188.158)"/>
            <path id="Caminho_13" d="M221.073 426.231a5.488 5.488 0 0 1 0 7.746 5.46 5.46 0 0 1-7.76 0 5.474 5.474 0 0 1 0-7.746 5.517 5.517 0 0 1 3.873-1.6 5.545 5.545 0 0 1 3.887 1.6z" class="cls-4" data-name="Caminho 13" transform="translate(90.868 182.253)"/>
            <path id="Caminho_14" d="M230.941 410.87a5.474 5.474 0 0 1 3.887 9.347 5.717 5.717 0 0 1-7.746 0 5.474 5.474 0 0 1 3.859-9.347z" class="cls-4" data-name="Caminho 14" transform="translate(96.778 176.348)"/>
            <path id="Caminho_15" d="M195.7 83.23a9.39 9.39 0 1 1-6.646 2.758 9.39 9.39 0 0 1 6.646-2.758z" class="cls-4" data-name="Caminho 15" transform="translate(79.97 35.737)"/>
            <path id="Caminho_16" d="M223.069 65.268a9.418 9.418 0 0 1 0 13.291 9.39 9.39 0 0 1-13.291 0 9.39 9.39 0 0 1 0-13.291 9.361 9.361 0 0 1 6.631-2.758 9.4 9.4 0 0 1 6.66 2.758z" class="cls-4" data-name="Caminho 16" transform="translate(88.858 26.845)"/>
            <path id="Caminho_17" d="M237.127 41.79a9.375 9.375 0 1 1-6.646 2.758 9.489 9.489 0 0 1 6.646-2.758z" class="cls-4" data-name="Caminho 17" transform="translate(97.752 17.952)"/>
            <path id="Caminho_18" d="M63.474 322.25a9.4 9.4 0 1 1-9.038 9.4 9.418 9.418 0 0 1 9.038-9.4z" class="cls-4" data-name="Caminho 18" transform="translate(23.373 138.315)"/>
            <path id="Caminho_19" d="M90.95 304.288a9.418 9.418 0 0 1 0 13.291 9.4 9.4 0 0 1-13.305 0 9.418 9.418 0 0 1 0-13.291 9.418 9.418 0 0 1 6.646-2.758 9.432 9.432 0 0 1 6.66 2.758z" class="cls-4" data-name="Caminho 19" transform="translate(32.156 129.423)"/>
            <path id="Caminho_20" d="M105.007 280.81a9.375 9.375 0 1 1-6.646 2.758 9.49 9.49 0 0 1 6.646-2.758z" class="cls-4" data-name="Caminho 20" transform="translate(41.051 120.531)"/>
            <path id="Linha_2" d="M28.269 0L0 28.269" class="cls-7" data-name="Linha 2" transform="translate(520.113 372.029)"/>
            <ellipse id="Elipse_1" cx="21.88" cy="21.88" class="cls-4" data-name="Elipse 1" rx="21.88" ry="21.88" transform="translate(140.212 308.66)"/>
            <path id="Caminho_21" d="M402.194 101.78a5.589 5.589 0 0 1 3.887 1.615 5.517 5.517 0 0 1 0 7.746 5.717 5.717 0 0 1-7.76 0 5.488 5.488 0 0 1 3.873-9.361z" class="cls-4" data-name="Caminho 21" transform="translate(170.269 43.698)"/>
            <path id="Caminho_22" d="M439.625 75.775a5.445 5.445 0 0 1 0 7.732 5.488 5.488 0 0 1-7.76 0 5.474 5.474 0 0 1 0-7.732 5.445 5.445 0 0 1 3.887-1.615 5.4 5.4 0 0 1 3.873 1.615zM419.888 95.5a5.488 5.488 0 0 1 0 7.746 5.445 5.445 0 0 1-7.746 0 5.474 5.474 0 0 1 0-7.746A5.473 5.473 0 0 1 416 93.9a5.516 5.516 0 0 1 3.887 1.6z" class="cls-4" data-name="Caminho 22" transform="translate(176.199 31.844)"/>
            <ellipse id="Elipse_2" cx="15.992" cy="15.992" class="cls-4" data-name="Elipse 2" rx="15.992" ry="15.992" transform="translate(527.873 161.056)"/>
            <ellipse id="Elipse_3" cx="12.62" cy="12.62" class="cls-4" data-name="Elipse 3" rx="12.62" ry="12.62" transform="translate(522.471 432.797)"/>
            <path id="Caminho_23" d="M386.7 293.7a6.931 6.931 0 1 1-2.038 4.909 6.946 6.946 0 0 1 2.038-4.909z" class="cls-4" data-name="Caminho 23" transform="translate(165.095 125.189)"/>
            <path id="Caminho_24" d="M32.719 273.544a12.634 12.634 0 1 1 0-17.85 12.634 12.634 0 0 1 0 17.85z" class="cls-4" data-name="Caminho 24" transform="translate(4.794 108.16)"/>
            <path id="Caminho_25" d="M11.851 282.95a6.931 6.931 0 1 1 2.038-4.909 6.946 6.946 0 0 1-2.038 4.909z" class="cls-4" data-name="Caminho 25" transform="translate(.008 116.362)"/>
            <path id="Caminho_26" d="M153.58 120.055a15.406 15.406 0 0 0 21.437-.557l14.549-14.549a6.474 6.474 0 0 1 9.161 0 6.474 6.474 0 0 1 0 9.161L74.161 238.675a7.36 7.36 0 0 0-.7 9.833 7.146 7.146 0 0 0 10.619.529l39.659-39.659a5.717 5.717 0 0 1 7.689-.5 5.6 5.6 0 0 1 .414 8.361l-97.354 97.182c-10.947 10.962-11.762 28.8-1.2 40.131a28.583 28.583 0 0 0 41.1.743l138.774-138.757a6.5 6.5 0 0 1 8.661-.615 6.317 6.317 0 0 1 .457 9.347l-47.663 47.705a24.3 24.3 0 0 0-1 33.7 23.981 23.981 0 0 0 34.529.629l6.946-6.946a6.488 6.488 0 0 1 8.661-.615 6.317 6.317 0 0 1 .457 9.347l-68.871 68.886a10 10 0 0 0-.5 13.763 9.676 9.676 0 0 0 13.891.2l196.38-196.367a10 10 0 0 0 .5-13.763 9.676 9.676 0 0 0-13.906-.214l-57.066 57.081a6.5 6.5 0 0 1-8.661.615 6.317 6.317 0 0 1-.457-9.347l84.706-84.706a24.367 24.367 0 0 0 1.015-33.757 24 24 0 0 0-34.543-.629l-84.92 84.948a6.5 6.5 0 0 1-8.661.6 6.317 6.317 0 0 1-.457-9.347l6.4-6.4c10.962-10.947 11.762-28.783 1.215-40.117a28.583 28.583 0 0 0-41.117-.743l-23.251 23.237a5.717 5.717 0 0 1-7.689.5 5.6 5.6 0 0 1-.386-8.261l142.845-142.8a7.417 7.417 0 0 0 .7-9.847 7.146 7.146 0 0 0-10.619-.514l-52.02 52.02a6.474 6.474 0 0 1-9.161 0 6.474 6.474 0 0 1 0-9.161l8.032-8.06a15.392 15.392 0 0 0 .543-21.437 15.078 15.078 0 0 0-21.523-.2L153.38 98.5a15.092 15.092 0 0 0 .2 21.552z" class="cls-8" data-name="Caminho 26" transform="translate(11.086 .012)"/>
            <path id="Caminho_27" d="M235.467 283.455a16.521 16.521 0 0 1 0 23.353l-13.548 13.563a16.535 16.535 0 0 1-23.367 0 16.535 16.535 0 0 1 0-23.367l13.548-13.549a16.507 16.507 0 0 1 23.367 0z" class="cls-4" data-name="Caminho 27" transform="translate(83.148 119.586)"/>
            <ellipse id="Elipse_4" cx="16.521" cy="16.521" class="cls-4" data-name="Elipse 4" rx="16.521" ry="16.521" transform="translate(243.212 445.388)"/>
            <ellipse id="Elipse_5" cx="7.575" cy="7.575" class="cls-9" data-name="Elipse 5" rx="7.575" ry="7.575" transform="translate(198.722 278.747)"/>
            <ellipse id="Elipse_6" cx="12.62" cy="12.62" class="cls-9" data-name="Elipse 6" rx="12.62" ry="12.62" transform="translate(218.259 249.135)"/>
            <g id="Grupo_2" class="cls-5" data-name="Grupo 2" transform="translate(67.799 275.503)">
                <path id="Caminho_28" d="M56.819 220.29a9.39 9.39 0 1 1-6.646 2.758 9.39 9.39 0 0 1 6.646-2.758z" class="cls-6" data-name="Caminho 28" transform="translate(-47.431 -180.945)"/>
                <path id="Caminho_29" d="M77.178 209.274a9.418 9.418 0 0 1 0 13.291 9.375 9.375 0 0 1-13.277 0 9.361 9.361 0 0 1 0-13.291 9.347 9.347 0 0 1 6.631-2.744 9.375 9.375 0 0 1 6.646 2.744z" class="cls-6" data-name="Caminho 29" transform="translate(-41.551 -186.85)"/>
                <path id="Caminho_30" d="M84.3 192.76a9.418 9.418 0 1 1-6.646 2.758 9.418 9.418 0 0 1 6.646-2.758z" class="cls-6" data-name="Caminho 30" transform="translate(-35.643 -192.76)"/>
            </g>
            <path id="Linha_3" d="M110.917 0L0 110.917" class="cls-3" data-name="Linha 3" transform="translate(127.922 377.217)"/>
            <path id="Linha_4" d="M129.125 0L0 129.125" class="cls-3" data-name="Linha 4" transform="translate(107.87 490.992)"/>
            <path id="Linha_5" d="M64.555 0L0 64.57" class="cls-3" data-name="Linha 5" transform="translate(91.006 129.714)"/>
            <path id="Linha_6" d="M85.235 0L0 85.235" class="cls-3" data-name="Linha 6" transform="translate(571.12 262.369)"/>
            <path id="Linha_7" d="M50.049 0L0 50.035" class="cls-3" data-name="Linha 7" transform="translate(453.142 518.547)"/>
            <path id="Caminho_31" d="M341.325.46a5.588 5.588 0 0 1 3.887 1.615 5.517 5.517 0 0 1 1.6 3.873 5.575 5.575 0 0 1-1.6 3.859 5.717 5.717 0 0 1-7.732 0 5.545 5.545 0 0 1-1.6-3.887 5.459 5.459 0 0 1 1.6-3.844A5.559 5.559 0 0 1 341.325.46z" class="cls-4" data-name="Caminho 31" transform="translate(144.159 .215)"/>
            <path id="Caminho_32" d="M348.841 14.721a5.445 5.445 0 0 1 0 7.746 5.474 5.474 0 0 1-7.746 0 5.474 5.474 0 0 1 0-7.746 5.459 5.459 0 0 1 3.887-1.6 5.417 5.417 0 0 1 3.859 1.6zM330.776 32.8a5.516 5.516 0 0 1 0 7.76 5.488 5.488 0 0 1-7.76 0 5.516 5.516 0 0 1 0-7.76 5.4 5.4 0 0 1 3.873-1.615 5.445 5.445 0 0 1 3.887 1.615zm-18.093 18.079a5.445 5.445 0 0 1 0 7.746 5.474 5.474 0 0 1-7.789.057 5.474 5.474 0 0 1 0-7.746 5.459 5.459 0 0 1 3.873-1.6 5.431 5.431 0 0 1 3.916 1.544zm-18.065 18.078a5.488 5.488 0 0 1 0 7.746 5.488 5.488 0 0 1-7.746 0 5.474 5.474 0 0 1 0-7.746 5.459 5.459 0 0 1 3.859-1.6 5.516 5.516 0 0 1 3.887 1.6z" class="cls-4" data-name="Caminho 32" transform="translate(122.437 5.648)"/>
            <path id="Caminho_33" d="M278.089 63.72a5.488 5.488 0 0 1 3.887 9.347 5.717 5.717 0 0 1-7.76 0 5.474 5.474 0 0 1 3.873-9.347z" class="cls-4" data-name="Caminho 33" transform="translate(117.001 27.364)"/>
            <path id="Linha_8" d="M107.087 0L0 107.087" class="cls-3" data-name="Linha 8" transform="translate(390.345 63.101)"/>
            <path id="Caminho_34" d="M201.736 290.65a11.733 11.733 0 0 1 0 16.578l-71.644 71.644a11.719 11.719 0 0 1-16.593 0 11.733 11.733 0 0 1 0-16.578l71.658-71.644a11.733 11.733 0 0 1 16.578 0z" class="cls-2" data-name="Caminho 34" transform="translate(47.25 123.282)"/>
            <ellipse id="Elipse_7" cx="12.62" cy="12.62" class="cls-4" data-name="Elipse 7" rx="12.62" ry="12.62" transform="translate(590.671 46.251)"/>
            <path id="Caminho_35" d="M434.422 23.232a6.931 6.931 0 1 1-2.038 4.909 6.946 6.946 0 0 1 2.038-4.909z" class="cls-4" data-name="Caminho 35" transform="translate(185.575 9.114)"/>
        </g>
    </g>
</svg>
